<svg xmlns="http://www.w3.org/2000/svg" xmlns:xlink="http://www.w3.org/1999/xlink" width="793" zoomAndPan="magnify" viewBox="0 0 595.5 842.249979" height="1122" preserveAspectRatio="xMidYMid meet" version="1.0"><defs><g/></defs><g fill="#000000" fill-opacity="1"><g transform="translate(39.617661, 368.178558)"><g><path d="M 155.023438 -138.597656 C 154.664062 -139.796875 153.34375 -140.515625 152.144531 -140.035156 C 143.753906 -137.398438 130.921875 -133.5625 116.175781 -129.003906 C 92.675781 -121.929688 63.304688 -113.058594 40.523438 -105.507812 C 27.933594 -101.191406 18.582031 -97.832031 11.988281 -95.074219 C 1.199219 -90.519531 -0.71875 -88.359375 -0.597656 -85.964844 C -0.480469 -84.765625 0.238281 -83.085938 3.476562 -82.488281 C 3.597656 -82.488281 3.714844 -82.488281 3.835938 -82.488281 C 4.914062 -82.488281 5.875 -83.207031 6.113281 -84.285156 C 6.355469 -85.242188 5.875 -86.203125 5.15625 -86.683594 C 8.273438 -88.601562 17.382812 -92.917969 44.480469 -101.910156 C 50.714844 -103.949219 57.308594 -106.105469 64.023438 -108.261719 C 60.1875 -92.4375 54.671875 -67.859375 48.917969 -41.960938 C 40.882812 -5.636719 30.453125 41.363281 24.816406 61.027344 C 24.816406 59.585938 25.058594 58.027344 25.175781 56.109375 C 25.296875 54.910156 24.339844 53.710938 23.019531 53.59375 C 21.820312 53.472656 20.742188 54.429688 20.621094 55.75 C 19.183594 71.214844 19.78125 73.734375 22.421875 74.09375 C 22.660156 74.09375 22.78125 74.214844 23.019531 74.214844 C 25.175781 74.214844 26.496094 71.695312 29.132812 62.585938 C 30.8125 56.46875 33.089844 47.835938 35.96875 36.085938 C 41.125 14.386719 47.359375 -13.667969 53.472656 -41.003906 C 59.585938 -68.339844 65.34375 -94.355469 69.179688 -109.820312 C 85.605469 -114.976562 102.75 -120.132812 117.496094 -124.570312 C 132.363281 -129.125 145.070312 -132.960938 153.582031 -135.71875 C 154.78125 -136.078125 155.5 -137.398438 155.023438 -138.597656 Z M 155.023438 -138.597656 "/></g></g></g><g fill="#000000" fill-opacity="1"><g transform="translate(104.599827, 368.178558)"><g><path d="M 52.632812 -27.097656 C 51.433594 -27.695312 49.996094 -27.214844 49.515625 -26.015625 C 35.726562 2.996094 22.660156 17.863281 19.78125 17.382812 C 19.542969 17.265625 15.347656 13.1875 28.894531 -28.414062 C 29.253906 -29.492188 30.09375 -32.011719 28.175781 -33.332031 C 26.375 -34.769531 24.339844 -33.449219 20.980469 -31.171875 C 17.382812 -28.894531 12.46875 -25.65625 8.632812 -26.136719 C 20.863281 -47.238281 19.664062 -51.914062 16.90625 -53.710938 C 12.589844 -56.230469 6.355469 -48.917969 3.476562 -44.71875 C -2.398438 -35.609375 -2.277344 -27.335938 3.957031 -23.140625 C 10.3125 -18.703125 18.582031 -24.097656 23.5 -27.335938 C 23.617188 -27.457031 23.617188 -27.457031 23.738281 -27.574219 C 19.0625 -12.828125 16.066406 -1.199219 14.988281 6.832031 C 13.667969 15.707031 14.628906 20.382812 17.984375 21.699219 C 18.582031 21.820312 19.0625 21.941406 19.664062 21.941406 C 29.253906 21.941406 45.917969 -7.554688 53.710938 -23.980469 C 54.191406 -25.175781 53.710938 -26.617188 52.632812 -27.097656 Z M 4.195312 -35.367188 C 5.875 -41.84375 11.507812 -47.835938 14.027344 -49.277344 C 13.789062 -47.359375 12.46875 -41.960938 4.796875 -28.65625 C 3.957031 -29.972656 3.355469 -32.011719 4.195312 -35.367188 Z M 4.195312 -35.367188 "/></g></g></g><g fill="#000000" fill-opacity="1"><g transform="translate(152.437246, 368.178558)"><g><path d="M 50.117188 -26.617188 C 49.035156 -27.097656 47.597656 -26.617188 47.117188 -25.539062 C 38.007812 -6.953125 31.171875 -1.078125 27.933594 -1.679688 C 26.617188 -1.917969 22.300781 -4.4375 21.222656 -25.417969 C 21.222656 -26.375 20.5 -27.214844 19.664062 -27.457031 C 18.703125 -27.695312 17.625 -27.457031 17.144531 -26.617188 C 16.425781 -25.777344 15.707031 -24.816406 14.988281 -23.738281 C 11.988281 -19.664062 8.03125 -14.148438 3.238281 -8.992188 C 2.519531 -8.152344 1.917969 -7.671875 1.558594 -7.433594 C 0.71875 -11.628906 5.15625 -27.695312 12.230469 -32.730469 C 14.265625 -34.167969 17.023438 -35.25 20.742188 -30.933594 C 21.582031 -29.972656 23.019531 -29.851562 23.980469 -30.691406 C 24.9375 -31.410156 25.058594 -32.96875 24.339844 -33.929688 C 19.78125 -39.207031 15.464844 -39.085938 12.589844 -38.125 C 3.355469 -34.890625 -2.878906 -17.144531 -3.117188 -8.992188 C -3.238281 -5.636719 -2.277344 -3.476562 -0.359375 -2.757812 C 2.636719 -1.558594 5.636719 -4.796875 6.59375 -5.875 C 10.671875 -10.3125 14.386719 -15.105469 17.023438 -18.824219 C 18.34375 -5.15625 21.582031 1.679688 26.976562 2.878906 C 27.457031 2.878906 27.933594 2.996094 28.414062 2.996094 C 36.566406 2.996094 45.320312 -11.269531 51.195312 -23.5 C 51.792969 -24.699219 51.3125 -26.015625 50.117188 -26.617188 Z M 50.117188 -26.617188 "/></g></g></g><g fill="#000000" fill-opacity="1"><g transform="translate(197.037554, 368.178558)"><g><path d="M 39.566406 -27.214844 C 38.484375 -27.816406 37.046875 -27.574219 36.449219 -26.496094 C 28.292969 -14.148438 14.746094 6.472656 5.875 4.554688 C 4.4375 4.195312 3.238281 3.238281 2.398438 1.679688 C 0 -2.636719 0.359375 -11.269531 3.117188 -18.824219 C 6.113281 -26.855469 9.710938 -28.894531 10.429688 -28.773438 C 10.550781 -28.65625 11.269531 -27.097656 10.3125 -23.378906 C 9.949219 -22.058594 10.671875 -20.863281 11.871094 -20.5 C 13.1875 -20.261719 14.386719 -20.980469 14.746094 -22.179688 C 17.023438 -30.8125 13.070312 -32.730469 11.871094 -33.210938 C 7.433594 -34.527344 2.039062 -29.253906 -1.199219 -20.382812 C -3.957031 -12.949219 -5.15625 -2.398438 -1.558594 3.957031 C -0.121094 6.714844 2.15625 8.390625 4.914062 8.992188 C 5.636719 9.230469 6.355469 9.230469 7.074219 9.230469 C 17.503906 9.230469 28.773438 -6.472656 40.285156 -23.980469 C 41.003906 -25.058594 40.644531 -26.496094 39.566406 -27.214844 Z M 39.566406 -27.214844 "/></g></g></g><g fill="#000000" fill-opacity="1"><g transform="translate(232.525963, 368.178558)"><g><path d="M 58.628906 -26.375 C 57.910156 -27.457031 56.46875 -27.695312 55.390625 -26.976562 C 45.078125 -20.261719 34.527344 -12.828125 24.457031 -3.476562 C 25.898438 -12.347656 27.335938 -21.820312 28.65625 -31.773438 C 28.894531 -32.851562 28.175781 -33.929688 27.097656 -34.289062 C 26.136719 -34.648438 24.9375 -34.167969 24.457031 -33.210938 C 22.058594 -29.132812 16.785156 -20.742188 12.109375 -15.105469 C 10.429688 -13.070312 8.753906 -11.988281 7.914062 -12.589844 C 5.875 -13.789062 4.4375 -22.058594 9.113281 -33.449219 C 9.589844 -34.648438 8.992188 -35.96875 7.914062 -36.449219 C 6.714844 -36.925781 5.394531 -36.328125 4.914062 -35.128906 C 0 -23.140625 0.238281 -11.75 5.636719 -8.632812 C 6.953125 -7.671875 10.789062 -6.355469 15.585938 -12.109375 C 18.105469 -15.105469 20.5 -18.464844 22.660156 -21.699219 C 21.460938 -13.429688 20.261719 -5.515625 18.941406 2.039062 C 8.871094 12.347656 -0.597656 24.816406 -8.753906 40.644531 C -22.421875 66.902344 -24.9375 96.035156 -18.105469 104.425781 C -16.785156 106.105469 -15.105469 106.945312 -13.308594 106.945312 C -12.707031 106.945312 -12.230469 106.824219 -11.628906 106.703125 C -3.835938 104.425781 3.117188 87.164062 7.671875 73.015625 C 13.308594 55.390625 18.464844 32.371094 23.257812 4.195312 C 34.410156 -6.953125 46.277344 -15.585938 57.910156 -23.140625 C 58.988281 -23.859375 59.347656 -25.296875 58.628906 -26.375 Z M 3.238281 71.578125 C -5.394531 98.910156 -11.628906 101.910156 -12.828125 102.269531 C -13.308594 102.390625 -13.789062 102.390625 -14.507812 101.550781 C -18.824219 96.273438 -19.183594 70.738281 -4.675781 42.683594 C 2.039062 29.851562 9.472656 19.304688 17.503906 10.3125 C 13.1875 35.128906 8.390625 55.628906 3.238281 71.578125 Z M 3.238281 71.578125 "/></g></g></g><g fill="#000000" fill-opacity="1"><g transform="translate(285.63869, 368.178558)"><g><path d="M 140.996094 -85.003906 C 140.394531 -88.839844 138.835938 -91.238281 136.320312 -92.078125 C 133.5625 -93.15625 130.085938 -91.839844 126.007812 -88.121094 C 125.046875 -87.164062 124.929688 -85.722656 125.769531 -84.765625 C 126.605469 -83.804688 128.046875 -83.804688 129.003906 -84.644531 C 132.960938 -88.121094 134.519531 -87.882812 134.878906 -87.761719 C 135.597656 -87.523438 136.199219 -86.203125 136.558594 -84.164062 C 139.796875 -64.863281 116.535156 5.273438 88.359375 27.695312 C 85.605469 29.972656 81.648438 32.371094 79.007812 31.050781 C 72.054688 27.574219 72.414062 2.519531 72.65625 -14.148438 C 72.894531 -33.089844 72.773438 -41.484375 68.21875 -42.683594 C 65.34375 -43.519531 62.464844 -40.882812 58.148438 -33.332031 C 41.960938 -4.4375 28.894531 17.265625 19.421875 31.292969 C 9.472656 46.039062 5.515625 49.277344 4.195312 49.875 C 3.355469 46.878906 3.957031 29.253906 42.203125 -70.496094 C 51.433594 -94.476562 56.949219 -104.546875 59.46875 -107.664062 C 59.585938 -106.464844 59.585938 -104.546875 59.46875 -101.191406 C 59.347656 -99.992188 60.304688 -98.910156 61.503906 -98.792969 C 62.824219 -98.671875 63.902344 -99.632812 64.023438 -100.949219 C 64.503906 -107.664062 64.144531 -112.339844 60.785156 -113.058594 C 58.507812 -113.660156 54.191406 -114.617188 37.886719 -72.054688 C 29.253906 -49.515625 17.144531 -17.265625 8.992188 8.390625 C -3.597656 47.835938 -1.320312 52.753906 2.039062 54.3125 C 2.636719 54.550781 3.117188 54.792969 3.714844 54.792969 C 6.953125 54.792969 11.628906 50.714844 21.582031 36.328125 C 31.292969 22.300781 44.960938 -0.359375 62.222656 -31.050781 C 64.742188 -35.609375 66.300781 -37.285156 67.019531 -37.886719 C 68.339844 -34.890625 68.097656 -23.019531 67.980469 -14.148438 C 67.621094 11.148438 68.097656 30.8125 76.972656 35.128906 C 80.808594 37.046875 85.605469 35.726562 91.238281 31.292969 C 121.09375 7.554688 144.589844 -64.382812 140.996094 -85.003906 Z M 140.996094 -85.003906 "/></g></g></g><g fill="#000000" fill-opacity="1"><g transform="translate(424.595011, 368.178558)"><g><path d="M 43.402344 -26.015625 C 42.324219 -26.855469 40.882812 -26.617188 40.164062 -25.65625 C 35.128906 -19.183594 26.855469 -13.789062 20.5 -14.988281 C 20.621094 -15.824219 20.742188 -16.664062 20.742188 -17.503906 C 21.582031 -31.050781 17.382812 -33.808594 14.867188 -34.289062 C 11.988281 -34.890625 8.992188 -32.730469 7.554688 -29.132812 C 6.953125 -29.375 6.234375 -29.375 5.636719 -28.894531 C 0.839844 -25.898438 -3.117188 -18.222656 -0.960938 -9.949219 C 0.480469 -5.035156 3.835938 -1.917969 8.273438 -1.917969 C 12.46875 -1.917969 16.90625 -5.035156 19.183594 -10.550781 C 27.574219 -8.753906 37.644531 -14.988281 43.761719 -22.78125 C 44.601562 -23.859375 44.359375 -25.296875 43.402344 -26.015625 Z M 8.390625 -6.472656 C 8.273438 -6.472656 8.273438 -6.472656 8.273438 -6.472656 C 5.273438 -6.59375 3.957031 -9.472656 3.597656 -11.148438 C 2.398438 -15.226562 3.355469 -20.863281 6.714844 -23.980469 C 6.953125 -19.902344 9.230469 -15.464844 14.988281 -12.347656 C 13.308594 -8.511719 10.429688 -6.472656 8.390625 -6.472656 Z M 16.1875 -17.746094 C 16.066406 -17.503906 16.066406 -17.265625 16.066406 -17.023438 C 11.507812 -20.023438 10.789062 -23.859375 11.628906 -26.855469 C 12.230469 -28.773438 13.429688 -29.734375 14.027344 -29.734375 C 14.628906 -29.613281 16.664062 -27.335938 16.1875 -17.746094 Z M 16.1875 -17.746094 "/></g></g></g><g fill="#000000" fill-opacity="1"><g transform="translate(462.960854, 368.178558)"><g><path d="M 48.195312 -26.734375 C 47.117188 -27.335938 45.679688 -26.976562 45.078125 -25.777344 C 42.203125 -20.863281 34.648438 -7.554688 30.332031 -8.03125 C 29.492188 -8.152344 27.097656 -9.351562 24.699219 -17.746094 C 23.019531 -23.617188 20.742188 -29.132812 16.304688 -29.375 C 13.070312 -29.613281 9.472656 -27.097656 3.957031 -16.785156 C 5.394531 -21.941406 6.953125 -27.097656 8.152344 -31.292969 C 8.632812 -32.851562 8.992188 -34.167969 9.351562 -35.488281 C 9.710938 -36.6875 8.992188 -38.007812 7.792969 -38.367188 C 6.59375 -38.726562 5.273438 -38.007812 4.914062 -36.6875 C 4.554688 -35.488281 4.195312 -34.050781 3.714844 -32.609375 C 0.597656 -21.941406 -4.078125 -5.753906 -5.273438 4.078125 C -5.394531 5.15625 -4.675781 6.234375 -3.597656 6.472656 C -3.355469 6.59375 -3.238281 6.59375 -2.996094 6.59375 C -2.039062 6.59375 -1.199219 5.996094 -0.839844 5.15625 C 10.429688 -22.898438 14.988281 -24.816406 16.066406 -24.816406 C 16.304688 -24.816406 17.984375 -24.339844 20.261719 -16.425781 C 22.660156 -8.152344 25.777344 -3.957031 29.851562 -3.476562 C 35.96875 -2.757812 41.484375 -10.3125 49.035156 -23.5 C 49.753906 -24.699219 49.277344 -26.015625 48.195312 -26.734375 Z M 48.195312 -26.734375 "/></g></g></g><g fill="#000000" fill-opacity="1"><g transform="translate(505.762779, 368.178558)"><g><path d="M 54.910156 -26.496094 C 54.191406 -27.574219 52.753906 -27.816406 51.792969 -27.214844 C 43.402344 -21.820312 32.609375 -14.746094 21.460938 -5.636719 C 22.660156 -13.90625 23.859375 -22.660156 25.058594 -32.011719 C 25.175781 -33.210938 24.457031 -34.167969 23.5 -34.527344 C 22.421875 -34.890625 21.222656 -34.410156 20.742188 -33.449219 C 18.703125 -30.09375 13.070312 -21.460938 8.390625 -15.226562 C 6.472656 -12.828125 5.394531 -11.871094 4.796875 -11.507812 C 3.597656 -15.347656 7.3125 -32.492188 14.867188 -39.207031 C 17.863281 -41.960938 20.621094 -41.960938 23.617188 -39.324219 C 24.578125 -38.484375 26.015625 -38.484375 26.855469 -39.445312 C 27.695312 -40.402344 27.574219 -41.84375 26.734375 -42.683594 C 21.941406 -47 17.625 -46.277344 14.867188 -44.839844 C 5.15625 -40.042969 -0.71875 -20.140625 0.121094 -12.109375 C 0.359375 -8.511719 2.039062 -7.195312 3.355469 -6.832031 C 6.59375 -5.996094 9.710938 -9.351562 11.988281 -12.46875 C 14.386719 -15.585938 16.90625 -19.183594 19.183594 -22.421875 C 18.222656 -14.867188 17.144531 -7.792969 16.066406 -1.078125 C 3.238281 10.070312 -9.589844 24.097656 -19.304688 41.84375 C -26.617188 55.03125 -29.015625 66.179688 -29.734375 73.136719 C -30.691406 82.246094 -29.375 89.800781 -26.015625 93.875 C -24.21875 96.15625 -21.941406 97.351562 -19.421875 97.351562 C -18.703125 97.351562 -17.863281 97.234375 -17.023438 96.992188 C -5.515625 93.757812 9.589844 66.421875 20.261719 1.320312 C 32.730469 -9.351562 44.960938 -17.265625 54.191406 -23.257812 C 55.269531 -23.980469 55.628906 -25.417969 54.910156 -26.496094 Z M -18.222656 92.558594 C -19.902344 93.039062 -21.222656 92.558594 -22.421875 91 C -26.976562 85.363281 -27.695312 66.539062 -15.347656 44.121094 C -6.953125 28.894531 3.835938 16.425781 14.746094 6.234375 C 3.835938 69.058594 -10.550781 90.398438 -18.222656 92.558594 Z M -18.222656 92.558594 "/></g></g></g></svg>